<?xml version="1.0" encoding="UTF-8"?>
<svg version="1.1" xmlns="http://www.w3.org/2000/svg" width="1267" height="450">
<path d="M0 0 C6.11252773 5.49262515 10.54242822 13.01146218 14.3125 20.25 C14.3125 20.91 14.3125 21.57 14.3125 22.25 C14.9725 22.25 15.6325 22.25 16.3125 22.25 C16.51875 21.445625 16.725 20.64125 16.9375 19.8125 C21.8803494 7.00602655 32.05740515 -2.05498533 44.3125 -7.75 C59.92259458 -13.64289762 76.52064609 -13.81461404 91.9140625 -7.203125 C104.50100554 -1.36273051 113.14162328 6.25393988 118.625 19.3125 C123.60390085 33.01511602 123.46876315 47.28230506 123.39770508 61.70727539 C123.39409916 63.21007195 123.39089655 64.71286952 123.38806152 66.21566772 C123.3787872 70.2543257 123.36247944 74.29292211 123.34369111 78.33154607 C123.33198242 80.85819365 123.32133812 83.38484379 123.31094933 85.91149712 C123.27783254 93.82869598 123.23988755 101.74585215 123.19558412 109.66299635 C123.14466955 118.78426294 123.11053515 127.90539588 123.09040338 137.02678114 C123.07374084 144.09805437 123.04189907 151.16915863 122.99855727 158.24031824 C122.97307273 162.4567392 122.95412717 166.6729499 122.95118141 170.88945198 C122.94803472 174.84519593 122.92610509 178.80038967 122.88962555 182.75596237 C122.87950082 184.20717548 122.87618566 185.65845435 122.88015556 187.10969734 C122.88453367 189.08917239 122.86207036 191.06865279 122.83821106 193.04798889 C122.83322507 194.15569169 122.82823908 195.26339449 122.823102 196.40466404 C122.19522956 199.90349098 121.07835762 201.08693706 118.3125 203.25 C116.15002441 203.75793457 116.15002441 203.75793457 113.79101562 203.76757812 C112.90329468 203.78018677 112.01557373 203.79279541 111.10095215 203.80578613 C110.14982544 203.79768921 109.19869873 203.78959229 108.21875 203.78125 C107.23507446 203.7850769 106.25139893 203.78890381 105.23791504 203.79284668 C103.16006445 203.79556627 101.08217965 203.78820182 99.00439453 203.77148438 C95.82376789 203.75007584 92.64540013 203.77128488 89.46484375 203.796875 C87.44530751 203.79423173 85.42577268 203.78910678 83.40625 203.78125 C82.45512329 203.78934692 81.50399658 203.79744385 80.52404785 203.80578613 C79.19246643 203.78687317 79.19246643 203.78687317 77.83398438 203.76757812 C77.05551147 203.76439575 76.27703857 203.76121338 75.47497559 203.75793457 C72.41185951 203.03845244 71.28820737 201.66858585 69.3125 199.25 C68.81027794 196.63054466 68.81027794 196.63054466 68.80697632 193.59725952 C68.79595383 192.4450592 68.78493134 191.29285889 68.77357483 190.10574341 C68.78174728 188.84543304 68.78991974 187.58512268 68.79833984 186.28662109 C68.79287808 184.94265947 68.7856361 183.59870408 68.77674866 182.25476074 C68.76140983 179.36163119 68.7586103 176.46885628 68.76551437 173.57569504 C68.7763095 168.99381438 68.75890605 164.4123032 68.73770142 159.83047485 C68.707429 152.57514751 68.69574645 145.31992957 68.69212496 138.06454432 C68.68548769 125.09455658 68.65629346 112.12464624 68.6070286 99.15475142 C68.5906055 94.60807394 68.58509957 90.06155557 68.58861899 85.51485133 C68.58905892 82.67364285 68.58144836 79.83249337 68.57194328 76.99130249 C68.56802083 75.06334626 68.57399801 73.13537767 68.58036804 71.20742798 C68.53408607 61.15527763 68.23951922 51.16659339 61.3125 43.25 C55.56710368 39.53943154 49.09947512 38.36368661 42.3125 39.25 C34.02084684 41.9216011 28.77693872 45.93354228 24.42578125 53.4453125 C21.09337019 61.84064985 21.02624232 70.50694195 21.05712891 79.4230957 C21.05157188 81.38914518 21.04601052 83.35519465 21.04028487 85.32124364 C21.03597101 87.41428927 21.03640747 89.50728718 21.03810501 91.60033607 C21.04095787 95.97541944 21.02651607 100.35034396 21.00912476 104.72538757 C20.96227561 117.15877964 20.93814179 129.5921582 20.93164062 142.02563477 C20.92789007 148.90848035 20.90987106 155.79114345 20.87654626 162.6739108 C20.85635406 167.02137662 20.85394955 171.36837124 20.86482644 175.71586478 C20.86804603 179.05197472 20.845345 182.38781957 20.82666016 185.72387695 C20.83891884 187.52479294 20.83891884 187.52479294 20.85142517 189.36209106 C20.77113524 197.39720942 20.77113524 197.39720942 18.56869507 201.4924469 C16.02196343 203.47632505 14.89360097 203.88101367 11.69921875 203.89697266 C10.79147705 203.91273346 9.88373535 203.92849426 8.94848633 203.94473267 C7.97548584 203.93461151 7.00248535 203.92449036 6 203.9140625 C4.49119263 203.92123795 4.49119263 203.92123795 2.9519043 203.92855835 C0.82696975 203.93195815 -1.29801703 203.92275021 -3.42285156 203.90185547 C-6.67631603 203.875092 -9.9263304 203.90160158 -13.1796875 203.93359375 C-15.24479929 203.93028967 -17.30990892 203.92388347 -19.375 203.9140625 C-20.34800049 203.92418365 -21.32100098 203.93430481 -22.32348633 203.94473267 C-23.68509888 203.92109146 -23.68509888 203.92109146 -25.07421875 203.89697266 C-25.87045654 203.89299469 -26.66669434 203.88901672 -27.48706055 203.88491821 C-29.6875 203.25 -29.6875 203.25 -31.94468689 201.50767517 C-34.7078185 196.34281544 -34.2316437 191.24749729 -34.18579102 185.48022461 C-34.19130981 184.18203796 -34.19682861 182.88385132 -34.20251465 181.54632568 C-34.21445329 178.7263229 -34.21398498 175.90669255 -34.20392036 173.08668327 C-34.18832092 168.61759509 -34.20206697 164.14888683 -34.21995544 159.67982483 C-34.25076686 150.98856248 -34.2522787 142.29741649 -34.25030518 133.60610962 C-34.24891254 122.56907387 -34.25945698 111.5321292 -34.2988829 100.49515921 C-34.31372357 96.06354152 -34.31361522 91.63226285 -34.30140507 87.20064056 C-34.29780481 85.09924719 -34.30103987 82.9979923 -34.30718994 80.89660645 C-34.31451126 78.34933702 -34.31144386 75.80200423 -34.29521179 73.254776 C-34.3553653 63.06068418 -35.54041143 52.6802929 -41.6875 44.25 C-48.48619936 38.97753927 -54.32313983 38.64247189 -62.6875 39.25 C-65.45130136 39.92725583 -67.16027877 40.80587359 -69.6875 42.25 C-70.55375 42.745 -71.42 43.24 -72.3125 43.75 C-81.93360114 53.87747489 -81.98975769 69.24049864 -81.94287109 82.37475586 C-81.94649155 83.62668732 -81.950112 84.87861877 -81.95384216 86.16848755 C-81.96069342 88.86448416 -81.96414291 91.56022939 -81.96189499 94.25620842 C-81.95903507 98.52223728 -81.97350875 102.7881042 -81.99087524 107.05409241 C-82.03766132 119.17511646 -82.06186296 131.29612578 -82.06835938 143.41723633 C-82.07211001 150.13236342 -82.09012642 156.84730345 -82.12345374 163.56235033 C-82.14363586 167.80110359 -82.14605593 172.03937358 -82.13517356 176.27815521 C-82.13195386 179.52918061 -82.15465464 182.78004375 -82.17333984 186.03100586 C-82.16516739 187.20042221 -82.15699493 188.36983856 -82.14857483 189.57469177 C-82.2288373 197.40220725 -82.2288373 197.40220725 -84.43130493 201.47325134 C-86.97859069 203.47923328 -88.09394756 203.88095147 -91.30078125 203.89697266 C-92.20852295 203.91273346 -93.11626465 203.92849426 -94.05151367 203.94473267 C-95.02451416 203.93461151 -95.99751465 203.92449036 -97 203.9140625 C-98.50880737 203.92123795 -98.50880737 203.92123795 -100.0480957 203.92855835 C-102.17303025 203.93195815 -104.29801703 203.92275021 -106.42285156 203.90185547 C-109.67631603 203.875092 -112.9263304 203.90160158 -116.1796875 203.93359375 C-118.24479929 203.93028967 -120.30990892 203.92388347 -122.375 203.9140625 C-123.34800049 203.92418365 -124.32100098 203.93430481 -125.32348633 203.94473267 C-126.68509888 203.92109146 -126.68509888 203.92109146 -128.07421875 203.89697266 C-128.87045654 203.89299469 -129.66669434 203.88901672 -130.48706055 203.88491821 C-133.85909176 202.9119471 -134.81988206 201.17928051 -136.6875 198.25 C-137.07080175 195.39785472 -137.22467732 192.93669342 -137.18870544 190.08959961 C-137.19423984 189.27214484 -137.19977424 188.45469007 -137.20547634 187.61246395 C-137.21908113 184.87544723 -137.20411481 182.13934267 -137.18920898 179.40234375 C-137.19299222 177.4392966 -137.19849231 175.47625211 -137.20558167 173.51321411 C-137.21955283 168.18265262 -137.20835473 162.85241329 -137.19187045 157.52186966 C-137.17802853 151.94548534 -137.18447905 146.3691199 -137.18800354 140.79272461 C-137.19070634 131.42784427 -137.17722402 122.06309205 -137.15405273 112.69824219 C-137.12744261 101.86854327 -137.12569567 91.03905859 -137.1374411 80.20933819 C-137.14821737 69.79489588 -137.14203298 59.38053112 -137.12788582 48.96609497 C-137.12212472 44.53238087 -137.12220969 40.09872349 -137.12695122 35.66500854 C-137.13172076 30.44469927 -137.12162011 25.22462481 -137.09999657 20.0043602 C-137.09442824 18.08752103 -137.09396381 16.17065929 -137.09894943 14.25381851 C-137.10489775 11.63908453 -137.09240596 9.02506957 -137.07518005 6.41040039 C-137.0811901 5.65018554 -137.08720014 4.88997068 -137.09339231 4.10671902 C-137.04001601 -0.34271274 -136.44456699 -3.21494436 -133.6875 -6.75 C-130.28542664 -8.45103668 -126.4070542 -7.91320272 -122.6640625 -7.91796875 C-121.31748062 -7.92296135 -121.31748062 -7.92296135 -119.94369507 -7.92805481 C-118.0422212 -7.93312296 -116.14073843 -7.93546317 -114.23925781 -7.93530273 C-111.33123067 -7.93748594 -108.42358481 -7.95563371 -105.515625 -7.97460938 C-103.66927213 -7.97754397 -101.82291746 -7.97952832 -99.9765625 -7.98046875 C-99.1066568 -7.98765427 -98.2367511 -7.99483978 -97.34048462 -8.00224304 C-96.5263913 -7.99916641 -95.71229797 -7.99608978 -94.87353516 -7.99291992 C-94.16008942 -7.99434494 -93.44664368 -7.99576996 -92.71157837 -7.99723816 C-90.32218507 -7.70537732 -88.73111056 -7.00940864 -86.6875 -5.75 C-85.37388302 -3.12276604 -85.47496091 -1.02389439 -85.37109375 1.9140625 C-85.32919922 3.03554688 -85.28730469 4.15703125 -85.24414062 5.3125 C-85.20482422 6.488125 -85.16550781 7.66375 -85.125 8.875 C-85.08181641 10.05835937 -85.03863281 11.24171875 -84.99414062 12.4609375 C-84.88782574 15.39050328 -84.78579358 18.32015588 -84.6875 21.25 C-84.30980469 20.43917969 -83.93210937 19.62835938 -83.54296875 18.79296875 C-76.11234346 3.84470851 -65.88753089 -4.68009194 -50.4296875 -10.6171875 C-32.88600604 -15.63949631 -14.01852034 -10.9967504 0 0 Z " fill="#FEFEFE" transform="translate(353.6875,28.75)"/>
<path d="M0 0 C12.98287739 12.40728184 17.17584611 27.96282626 17.68695068 45.62210083 C17.76942617 50.19040227 17.78154508 54.75826514 17.77830124 59.32722664 C17.77732162 62.37749564 17.7904436 65.42742587 17.80728149 68.47764587 C17.85313572 77.13944983 17.87815433 85.80121321 17.88476562 94.46313477 C17.88980777 99.78977285 17.91418207 105.11604901 17.95009232 110.44256401 C17.9598159 112.45533503 17.96226346 114.46815626 17.95692062 116.48094368 C17.91566408 132.77622218 19.36768757 144.96717761 29.7890625 158.08007812 C32.20317538 161.29781079 33.87663679 163.86732732 34.1953125 167.9453125 C33.33754994 172.77204421 31.34031572 174.80102555 27.69140625 177.7734375 C27.10335205 178.28285889 26.51529785 178.79228027 25.90942383 179.31713867 C24.12758233 180.84926785 22.32115446 182.34607602 20.50390625 183.8359375 C19.0034375 185.08503906 19.0034375 185.08503906 17.47265625 186.359375 C15.65992805 187.85131141 13.83612915 189.32992825 12 190.79296875 C9.64762946 192.71830489 7.46077425 194.74767277 5.25390625 196.8359375 C1.79810885 199.87477775 -0.76181161 201.01458966 -5.49609375 200.8359375 C-14.94045072 196.09042041 -23.30203822 185.89451217 -28.49609375 176.8359375 C-28.49609375 176.1759375 -28.49609375 175.5159375 -28.49609375 174.8359375 C-28.94597656 175.23683594 -29.39585938 175.63773438 -29.859375 176.05078125 C-32.05861387 177.99439717 -34.27790641 179.91397868 -36.49609375 181.8359375 C-37.31722656 182.56941406 -38.13835937 183.30289063 -38.984375 184.05859375 C-57.06933156 199.67863771 -78.24266814 203.413388 -101.49609375 201.8359375 C-115.37590337 200.06423079 -127.97793749 194.23573772 -137.49609375 183.8359375 C-149.07664277 168.7468261 -152.31064475 150.42554964 -150.2734375 131.80029297 C-147.8319948 114.47378674 -140.09672598 99.08128197 -126.49609375 87.8359375 C-101.19221531 69.44263551 -68.58819704 67.89443662 -38.49609375 64.8359375 C-37.66576567 47.77220589 -37.66576567 47.77220589 -43.18359375 31.9609375 C-50.10279596 25.60275168 -57.81327559 24.54216168 -66.91015625 24.6171875 C-74.03372351 25.05174062 -79.94352536 27.292927 -85.49609375 31.8359375 C-90.03251575 37.03622613 -92.05658021 42.54420172 -94.28515625 49.04296875 C-95.49609375 51.8359375 -95.49609375 51.8359375 -98.49609375 53.8359375 C-100.67822266 53.91113281 -100.67822266 53.91113281 -103.22265625 53.6640625 C-104.16447754 53.57777588 -105.10629883 53.49148926 -106.07666016 53.40258789 C-107.58365479 53.24584595 -107.58365479 53.24584595 -109.12109375 53.0859375 C-110.1476709 52.98595459 -111.17424805 52.88597168 -112.23193359 52.78295898 C-114.32315289 52.57624412 -116.41382634 52.36392992 -118.50390625 52.14599609 C-121.20837802 51.86575139 -123.91387075 51.60739089 -126.62109375 51.35546875 C-128.1212493 51.20466447 -129.62126126 51.05242165 -131.12109375 50.8984375 C-132.43335938 50.76566406 -133.745625 50.63289063 -135.09765625 50.49609375 C-138.64751796 49.80652291 -140.75324517 49.19641871 -143.49609375 46.8359375 C-146.29257185 38.31448064 -141.4086635 28.3614361 -137.80859375 20.6484375 C-128.48408177 3.1620709 -113.14984406 -7.29469583 -94.734375 -13.4140625 C-64.22248314 -22.08619895 -25.18749206 -21.8370432 0 0 Z M-57.05859375 98.0859375 C-58.15300781 98.2883606 -58.15300781 98.2883606 -59.26953125 98.49487305 C-70.18940607 100.63447996 -81.17486898 104.73431325 -87.87109375 114.0859375 C-93.82947979 124.00002982 -95.20871544 134.84755651 -92.43359375 146.0859375 C-90.25200875 152.47633508 -86.16787484 156.80029476 -80.87109375 160.8359375 C-72.97530462 163.17543058 -64.74046377 162.88567303 -57.4140625 159.015625 C-46.73734883 152.44868502 -41.55682522 141.73329691 -38.49609375 129.8359375 C-37.6743749 125.61425926 -37.37796938 121.64205586 -37.3984375 117.34375 C-37.40166016 116.14492187 -37.40488281 114.94609375 -37.40820312 113.7109375 C-37.41658203 112.4734375 -37.42496094 111.2359375 -37.43359375 109.9609375 C-37.43810547 108.70023438 -37.44261719 107.43953125 -37.44726562 106.140625 C-37.45901415 103.03901364 -37.47544208 99.93750025 -37.49609375 96.8359375 C-44.15571526 96.69692186 -50.50680202 96.85281446 -57.05859375 98.0859375 Z " fill="#FEFEFE" transform="translate(156.49609375,33.1640625)"/>
<path d="M0 0 C13.28831137 12.49808316 17.05370411 28.44264945 17.86304855 46.1626091 C18.02264588 51.51357107 18.049573 56.86422211 18.05496025 62.21728325 C18.05869218 65.19975638 18.07559423 68.18191664 18.09571838 71.1643219 C18.15052658 79.62958964 18.18188016 88.09489811 18.20629883 96.56030273 C18.22222818 101.77363236 18.25248093 106.98672927 18.29106331 112.19993782 C18.30264149 114.17052801 18.30864302 116.14115978 18.30874443 118.11178398 C18.18317638 135.16850235 18.18317638 135.16850235 24.5625 150.75 C25.33400391 151.98363281 25.33400391 151.98363281 26.12109375 153.2421875 C27.20722317 154.87268395 28.32484322 156.48263462 29.47265625 158.0703125 C30.01792969 158.83085937 30.56320312 159.59140625 31.125 160.375 C31.62773438 161.03886719 32.13046875 161.70273438 32.6484375 162.38671875 C34.24338894 165.71801804 34.22937546 168.04182947 33.75 171.6875 C31.73046875 174.2421875 31.73046875 174.2421875 28.9375 176.5625 C27.93203125 177.41457031 26.9265625 178.26664063 25.890625 179.14453125 C24.84537948 179.994196 23.79853434 180.84189718 22.75 181.6875 C21.81671875 182.45449219 20.8834375 183.22148437 19.921875 184.01171875 C18.10580969 185.49829793 16.28159657 186.97498121 14.44921875 188.44140625 C11.67825309 190.74720256 9.102901 193.19485805 6.5 195.6875 C1.48639643 200.23231972 1.48639643 200.23231972 -2.0625 200.9375 C-8.1937624 200.45661667 -11.96547085 196.32721835 -16.125 192.125 C-16.90955566 191.33851074 -16.90955566 191.33851074 -17.70996094 190.53613281 C-22.15507526 185.98105895 -25.86183879 181.07992559 -29.25 175.6875 C-30.19875 176.5125 -31.1475 177.3375 -32.125 178.1875 C-53.4922857 196.41633126 -73.03855822 203.64496487 -101.25 201.6875 C-116.41150082 199.66221603 -129.19450395 193.43517902 -139.03515625 181.52734375 C-150.30529893 165.64537798 -152.61970421 145.89474833 -149.59765625 127.00390625 C-146.86656278 112.94620908 -140.42818064 101.7585419 -130.25 91.6875 C-129.65960937 91.06359375 -129.06921875 90.4396875 -128.4609375 89.796875 C-106.07230984 67.90138892 -67.41040859 67.76300219 -38.25 64.6875 C-37.26224816 46.73448435 -37.26224816 46.73448435 -44.25 30.6875 C-52.57959862 24.2089233 -61.01663414 23.82853354 -71.25 24.6875 C-77.53046323 26.20630483 -82.81031386 28.93806831 -87.25 33.6875 C-89.89902668 38.13786482 -91.91381937 42.81705065 -93.8125 47.625 C-95.34127818 50.8819622 -96.21676583 51.88624319 -99.25 53.6875 C-101.43798828 53.8762207 -101.43798828 53.8762207 -103.8203125 53.61328125 C-104.70855713 53.52393311 -105.59680176 53.43458496 -106.51196289 53.3425293 C-107.45676514 53.22949463 -108.40156738 53.11645996 -109.375 53 C-110.83377563 52.84108276 -110.83377563 52.84108276 -112.32202148 52.67895508 C-114.32356504 52.4601153 -116.32447377 52.23539176 -118.32470703 52.00488281 C-121.05766755 51.70836732 -123.78608992 51.47680235 -126.52734375 51.2734375 C-128.12239779 51.14064854 -129.71744998 51.00783729 -131.3125 50.875 C-132.04291504 50.82964111 -132.77333008 50.78428223 -133.52587891 50.73754883 C-137.30597165 50.3825248 -139.21341523 49.71586991 -142.2421875 47.3671875 C-144.25 44.6875 -144.25 44.6875 -144.66015625 42.65234375 C-141.60911291 24.86030449 -133.27804404 8.93510749 -118.625 -2 C-85.44737551 -23.74236907 -31.3948204 -26.82321208 0 0 Z M-85.25 110.6875 C-92.98548738 120.11042631 -94.24570313 129.71447722 -93.25 141.6875 C-91.7758913 148.30106874 -89.64918121 153.36815503 -84.25 157.6875 C-83.198125 158.55375 -83.198125 158.55375 -82.125 159.4375 C-76.8818617 162.93292554 -70.27138961 162.27864099 -64.25 161.6875 C-54.53391716 158.78353111 -47.71061929 151.85030898 -42.9375 143.125 C-36.1281819 128.17047577 -36.87791511 112.7634754 -37.25 96.6875 C-54.07796444 96.49978524 -72.82530928 97.93114402 -85.25 110.6875 Z " fill="#FEFEFE" transform="translate(659.25,33.3125)"/>
<path d="M0 0 C14.92254156 11.73170872 19.76880996 26.41292001 22.02678299 44.85391998 C22.74322501 51.4549833 22.72556383 58.06981025 22.72021484 64.70214844 C22.72621844 66.21671879 22.73302809 67.73128613 22.74057007 69.24584961 C22.75802532 73.30703357 22.76291591 77.36813299 22.76420164 81.42935085 C22.76563254 83.97041875 22.76991911 86.51146573 22.77519608 89.05252838 C22.79360975 97.92598315 22.80187531 106.79937831 22.80029297 115.67285156 C22.79908539 123.93645051 22.82032979 132.19979092 22.8517803 140.46332431 C22.8778911 147.57785224 22.88866286 154.69229519 22.88738215 161.8068707 C22.88687212 166.04843131 22.89258128 170.28976019 22.91373825 174.53127289 C22.93303975 178.50746572 22.93330137 182.48320312 22.91870499 186.45941162 C22.91660752 187.91914787 22.92137336 189.37891216 22.9334259 190.83860016 C22.94878541 192.82697453 22.93721359 194.81550317 22.92416382 196.80389404 C22.92525335 197.91729534 22.92634289 199.03069664 22.92746544 200.17783737 C22.4296875 202.91015625 22.4296875 202.91015625 20.53393745 204.7679882 C18.12177493 206.07728844 16.6406243 206.2899623 13.90820312 206.29833984 C13.02048218 206.30779633 12.13276123 206.31725281 11.21813965 206.32699585 C10.26701294 206.32092316 9.31588623 206.31485046 8.3359375 206.30859375 C7.35226196 206.31146393 6.36858643 206.31433411 5.35510254 206.31729126 C3.27725651 206.31933095 1.19939123 206.31380776 -0.87841797 206.30126953 C-4.05870503 206.28521485 -7.23772121 206.30112178 -10.41796875 206.3203125 C-12.4375028 206.31833005 -14.45703607 206.31448634 -16.4765625 206.30859375 C-17.42768921 206.31466644 -18.37881592 206.32073914 -19.35876465 206.32699585 C-20.69034607 206.31281113 -20.69034607 206.31281113 -22.04882812 206.29833984 C-22.82730103 206.29595306 -23.60577393 206.29356628 -24.40783691 206.29110718 C-27.23142366 205.79369209 -28.49528321 204.88368915 -30.5703125 202.91015625 C-31.07253456 200.53424358 -31.07253456 200.53424358 -31.07583618 197.67033386 C-31.08685867 196.58418793 -31.09788116 195.49804199 -31.10923767 194.37898254 C-31.10106522 193.18681625 -31.09289276 191.99464996 -31.08447266 190.76635742 C-31.09159775 189.5106897 -31.09872284 188.25502197 -31.10606384 186.96130371 C-31.12141887 184.22749317 -31.1241953 181.49405804 -31.11729813 178.76021385 C-31.10650258 174.42514309 -31.1239097 170.09046288 -31.14511108 165.75544739 C-31.17540614 158.88380191 -31.18706729 152.01227192 -31.19068754 145.14056522 C-31.19731354 132.87655026 -31.22666898 120.61261844 -31.2757839 108.3487013 C-31.29214509 104.05318461 -31.2977249 99.75783587 -31.29419351 95.46229112 C-31.29385858 93.42175604 -31.2979988 91.38128496 -31.30397034 89.34075928 C-31.31098305 86.87123081 -31.31114973 84.40166724 -31.30244446 81.93214417 C-31.36370521 69.21798746 -31.5486478 53.93182095 -41.16796875 44.3125 C-46.31444749 40.91801403 -53.09044805 40.23734569 -59.03515625 41.38671875 C-66.83972644 43.75016596 -71.13188631 47.78353541 -75.1484375 54.8125 C-81.47671497 68.59910449 -81.71986515 83.97721914 -81.7121582 98.87915039 C-81.71563263 99.99628418 -81.71910706 101.11341797 -81.72268677 102.2644043 C-81.72997635 104.66290362 -81.73535744 107.0614094 -81.73897743 109.45991707 C-81.74620797 113.25526903 -81.76191711 117.05049652 -81.78031921 120.84580994 C-81.83252306 131.62693186 -81.88128781 142.4079643 -81.89624023 153.18920898 C-81.90550869 159.80491361 -81.93554208 166.42032702 -81.97756004 173.03591728 C-81.9898869 175.55293754 -81.99498825 178.07000384 -81.99276161 180.5870533 C-81.99041968 184.09363249 -82.01248476 187.59926177 -82.0402832 191.10571289 C-82.03038109 192.66650826 -82.03038109 192.66650826 -82.02027893 194.25883484 C-82.11118115 201.21696689 -82.11118115 201.21696689 -84.32084656 204.55308533 C-86.82510326 206.06386791 -88.18548945 206.41585348 -91.09179688 206.42773438 C-91.97951782 206.44034302 -92.86723877 206.45295166 -93.78186035 206.46594238 C-94.73298706 206.45784546 -95.68411377 206.44974854 -96.6640625 206.44140625 C-97.64773804 206.44523315 -98.63141357 206.44906006 -99.64489746 206.45300293 C-101.72274805 206.45572252 -103.80063285 206.44835807 -105.87841797 206.43164062 C-109.05904461 206.41023209 -112.23741237 206.43144113 -115.41796875 206.45703125 C-117.43750499 206.45438798 -119.45703982 206.44926303 -121.4765625 206.44140625 C-122.42768921 206.44950317 -123.37881592 206.4576001 -124.35876465 206.46594238 C-125.69034607 206.44702942 -125.69034607 206.44702942 -127.04882812 206.42773438 C-127.82730103 206.424552 -128.60577393 206.42136963 -129.40783691 206.41809082 C-132.56177057 205.67727694 -133.6014206 204.48236421 -135.5703125 201.91015625 C-135.96525763 199.0610834 -136.1152454 196.597819 -136.0849762 193.74938965 C-136.09192172 192.91983308 -136.09886725 192.09027652 -136.10602325 191.23558187 C-136.12434162 188.45170417 -136.11401569 185.668674 -136.10375977 182.88476562 C-136.11081575 180.89068462 -136.11955941 178.89660896 -136.12986755 176.90254211 C-136.15240598 171.4831743 -136.14941156 166.0640979 -136.14054608 160.644701 C-136.13544343 156.12404498 -136.1427228 151.60344406 -136.15001816 147.08279371 C-136.16703099 136.42086965 -136.16343695 125.75908867 -136.14672852 115.09716797 C-136.12980003 104.08845602 -136.14564877 93.08014036 -136.1779514 82.07147169 C-136.2046175 72.62679082 -136.21193152 63.18223354 -136.20343632 53.73751879 C-136.19849911 48.09345232 -136.20076581 42.44962444 -136.22122383 36.80558777 C-136.23953445 31.4998264 -136.23367875 26.19463683 -136.20902443 20.88890648 C-136.20400211 18.93939184 -136.20754293 16.98983397 -136.22017288 15.04035378 C-136.23602844 12.38321305 -136.22122474 9.72797265 -136.19850159 7.07092285 C-136.21033732 6.29544019 -136.22217304 5.51995753 -136.23436743 4.7209754 C-136.16698466 0.85536462 -135.90301242 -0.74709951 -133.16423035 -3.56856632 C-130.5634259 -5.0938826 -129.26711807 -5.59085416 -126.30249023 -5.59155273 C-125.49492783 -5.60093369 -124.68736542 -5.61031464 -123.85533142 -5.61997986 C-122.56762596 -5.60312889 -122.56762596 -5.60312889 -121.25390625 -5.5859375 C-120.36042984 -5.58739273 -119.46695343 -5.58884796 -118.54640198 -5.59034729 C-116.6628187 -5.58869139 -114.77922146 -5.57716472 -112.89575195 -5.55639648 C-110.01390138 -5.527405 -107.13388729 -5.53580105 -104.25195312 -5.54882812 C-102.4192619 -5.54259138 -100.58657648 -5.53420094 -98.75390625 -5.5234375 C-97.46316444 -5.52784096 -97.46316444 -5.52784096 -96.14634705 -5.53233337 C-92.61160705 -5.47659657 -90.21262008 -5.43244526 -87.05883789 -3.75024414 C-84.31229127 -0.68656306 -84.39951774 2.52161477 -84.25390625 6.453125 C-84.21201172 7.52626953 -84.17011719 8.59941406 -84.12695312 9.70507812 C-84.08763672 10.82462891 -84.04832031 11.94417969 -84.0078125 13.09765625 C-83.96462891 14.22880859 -83.92144531 15.35996094 -83.87695312 16.52539062 C-83.77082151 19.32018979 -83.66876865 22.11507787 -83.5703125 24.91015625 C-83.085625 24.00394531 -82.6009375 23.09773438 -82.1015625 22.1640625 C-74.4747312 8.17801197 -65.59936345 -2.73473727 -49.73828125 -7.58203125 C-32.92146908 -11.52110437 -14.39855953 -10.06190139 0 0 Z " fill="#FEFEFE" transform="translate(1223.5703125,26.08984375)"/>
<path d="M0 0 C3.50057766 2.84421935 6.78188782 5.84108386 10 9 C10.68835937 9.66386719 11.37671875 10.32773437 12.0859375 11.01171875 C35.02132488 34.80831633 39.702651 71.77357195 39.25 103.1328125 C38.55846442 128.28396153 31.22155102 154.37964781 15 174 C14.31292969 174.84949219 13.62585937 175.69898438 12.91796875 176.57421875 C0.61224271 191.05284776 -16.94427216 201.73871039 -36 204 C-59.24647434 205.73475486 -80.44598883 202.59129444 -99.375 188.1875 C-122.72087891 168.0091524 -133.16375743 139.16028327 -135.78833008 108.96630859 C-138.36950594 72.79412094 -131.73645602 36.99411363 -107.75 8.875 C-80.72703566 -20.29699873 -31.62427669 -23.4358479 0 0 Z M-66.8125 33.5 C-78.76790082 48.83104341 -78.501513 69.68328993 -78.39111328 88.17382812 C-78.37505679 91.36371849 -78.39103479 94.55233573 -78.41015625 97.7421875 C-78.4295597 116.85523001 -78.41344099 141.94548928 -64.3359375 156.75 C-58.93331655 161.70041919 -53.68049269 163.51765693 -46.36328125 163.30859375 C-39.60709278 162.42638071 -34.12680739 159.06735989 -29.5625 154.1015625 C-12.3076776 130.89382637 -16.32464524 89.35137578 -19.89111328 62.35644531 C-21.49109291 51.57236492 -23.48897474 38.52137116 -32 31 C-43.2518196 24.09138277 -57.08355893 23.37008305 -66.8125 33.5 Z " fill="#FEFEFE" transform="translate(1021,32)"/>
<path d="M0 0 C3.28420697 1.49427776 6.30506482 3.36051282 9.375 5.25 C80.63085438 47.37678082 163.86602752 71.08226555 281.3828125 84.83691406 C283.7879813 84.98678839 286.19045086 85.15903961 288.59375 85.3359375 C365.80354922 90.55530652 445.07180766 79.07231156 566.19018555 37.9453125 C571.7735202 35.58476713 575.92621578 34.39736143 582 35 C585.58552881 36.63687185 586.79315055 37.68972583 589 41 C589.60851561 44.44825513 589.74618869 46.84733484 587.79394531 49.86303711 C582.91695773 55.50988584 577.47937527 59.41620255 571.1875 63.375 C570.17357178 64.023479 569.15964355 64.67195801 568.11499023 65.34008789 C554.83831323 73.75132751 541.09510892 81.19221593 526.95800781 88.04541016 C525.04513724 88.97799419 523.14361299 89.9310621 521.2421875 90.88671875 C476.18137129 113.18931687 425.59218199 125.36559899 376 132 C375.31282898 132.09194641 374.62565796 132.18389282 373.91766357 132.27862549 C335.16410422 137.36011877 294.73785803 137.00457581 256 132 C255.34245728 131.91514343 254.68491455 131.83028687 254.00744629 131.74285889 C179.84057448 122.063545 109.06410653 96.17703067 46.75 54.6875 C45.65598877 53.95909912 44.56197754 53.23069824 43.43481445 52.48022461 C36.11150283 47.5468075 29.01387439 42.36290433 22 37 C21.33629395 36.4949292 20.67258789 35.9898584 19.98876953 35.46948242 C-9.68198394 12.76576018 -9.68198394 12.76576018 -11.875 6.5 C-12.01766651 3.64666982 -11.59268471 2.34711431 -10 0 C-6.68911146 -1.65544427 -3.45859142 -0.87682599 0 0 Z " fill="#FF9900" transform="translate(192,254)"/>
<path d="M0 0 C1.12453583 -0.00426498 2.24907166 -0.00852997 3.40768433 -0.01292419 C5.27472015 -0.01224442 5.27472015 -0.01224442 7.17947388 -0.0115509 C8.48177948 -0.01490952 9.78408508 -0.01826813 11.12585449 -0.02172852 C14.70853174 -0.03058966 18.29118513 -0.03290754 21.87387228 -0.0335443 C24.86100682 -0.03449184 27.84813575 -0.03816841 30.83526814 -0.0417164 C37.88164688 -0.04986931 44.92801284 -0.0522999 51.97439575 -0.05158997 C59.2503768 -0.05098923 66.52628369 -0.06153825 73.80224597 -0.07733363 C80.04175538 -0.09039781 86.28124053 -0.09577432 92.52076352 -0.09513456 C96.25050084 -0.0948792 99.98017234 -0.09775097 103.70989609 -0.10831261 C107.86907794 -0.11976788 112.02809317 -0.11525366 116.18728638 -0.10920715 C117.42792847 -0.11482666 118.66857056 -0.12044617 119.94680786 -0.12623596 C121.64207108 -0.11994423 121.64207108 -0.11994423 123.37158203 -0.11352539 C124.35567991 -0.11407016 125.33977779 -0.11461493 126.35369682 -0.1151762 C128.81277466 0.13371277 128.81277466 0.13371277 131.81277466 2.13371277 C133.45387334 7.0570088 133.07702246 12.1536833 133.10794067 17.31071472 C133.1250648 19.29687185 133.16895042 21.28273964 133.21316528 23.26847839 C133.26164752 30.61167225 133.04453528 36.04208727 128.81277466 42.13371277 C128.34557007 42.84487244 127.87836548 43.5560321 127.39700317 44.28874207 C125.7854442 46.68558274 124.12004255 49.03601447 122.43777466 51.38371277 C121.17981765 53.15965208 119.9220093 54.93569671 118.66433716 56.71183777 C118.02399536 57.61224792 117.38365356 58.51265808 116.72390747 59.44035339 C113.73219718 63.65657055 110.77340129 67.89564141 107.81277466 72.13371277 C106.64628299 73.80050192 105.47961588 75.4671683 104.31277466 77.13371277 C103.73527466 77.95871277 103.15777466 78.78371277 102.56277466 79.63371277 C97.31277466 87.13371277 97.31277466 87.13371277 95.56253052 89.63395691 C94.39654655 91.29971801 93.23069356 92.96557081 92.06497192 94.6315155 C89.13893013 98.81280104 86.21058982 102.99244078 83.27761841 107.16886902 C75.37147903 118.43342642 67.55681343 129.75710075 59.81277466 141.13371277 C61.03609497 141.17109558 62.25941528 141.20847839 63.51980591 141.24699402 C84.72620578 142.01991177 105.36836592 144.75779717 124.62527466 154.13371277 C125.28938354 154.45364197 125.95349243 154.77357117 126.63772583 155.10319519 C131.08355167 157.38983411 134.70461059 159.94630354 136.40090942 164.82536316 C136.97928999 168.06696851 136.99554988 171.28489159 137.01589966 174.56730652 C137.02159973 175.28225784 137.0272998 175.99720917 137.03317261 176.73382568 C137.0425958 178.24251334 137.04914591 179.75122133 137.05300903 181.25993347 C137.06272738 183.56002292 137.09377956 185.8592229 137.12527466 188.15910339 C137.13180437 189.62849916 137.13705497 191.09790128 137.14089966 192.56730652 C137.15941986 193.59252663 137.15941986 193.59252663 137.17831421 194.63845825 C137.15827189 198.96198376 136.53363534 201.73650234 133.81277466 205.13371277 C127.60764526 207.18921018 123.5608706 205.15617652 118.00027466 202.50871277 C100.94601189 194.86709439 83.46757759 191.10928282 64.81277466 190.13371277 C64.02902466 190.09117371 63.24527466 190.04863464 62.43777466 190.00480652 C39.88783853 189.4175686 15.74679232 194.80475026 -4.27389526 205.21916199 C-7.11493973 206.57715007 -9.08595514 206.58598134 -12.18722534 206.13371277 C-15.32973687 203.22031677 -16.13706823 201.52332735 -16.68893433 197.23649597 C-16.70848137 195.71928675 -16.7053389 194.20166937 -16.68331909 192.68449402 C-16.68477432 191.87183578 -16.68622955 191.05917755 -16.68772888 190.22189331 C-16.68607272 188.50471916 -16.67454299 186.78752974 -16.65377808 185.07048035 C-16.62500814 182.47175769 -16.63313797 179.87510201 -16.64620972 177.27629089 C-16.633596 166.79365923 -16.3478488 157.14023896 -10.31222534 148.13371277 C-9.39183472 146.75699402 -9.39183472 146.75699402 -8.45285034 145.35246277 C-5.13487725 140.63865273 -1.76148721 135.96612896 1.63284302 131.30705261 C5.5999915 125.85299642 9.45834482 120.33582879 13.25027466 114.75871277 C17.70619546 108.20628358 22.20070584 101.68402948 26.75027466 95.19621277 C27.33228638 94.36605652 27.9142981 93.53590027 28.51394653 92.68058777 C30.85780944 89.33961191 33.20363691 86.000023 35.55105591 82.6615448 C42.35294514 72.98650991 49.1008831 63.27889155 55.75418091 53.50090027 C56.77952942 51.99547668 56.77952942 51.99547668 57.82559204 50.4596405 C59.48849095 48.01800757 61.15087721 45.5760274 62.81277466 43.13371277 C61.982276 43.1403746 61.15177734 43.14703644 60.29611206 43.15390015 C52.46840067 43.21401809 44.64076686 43.25969062 36.81287766 43.28914928 C32.78849181 43.30480346 28.76429678 43.32603696 24.74002075 43.36003113 C20.85615413 43.3926338 16.972471 43.41056765 13.08847809 43.4183445 C11.60689658 43.42388641 10.12532508 43.43470849 8.64382172 43.45090294 C6.56808288 43.47269006 4.49310168 43.47567928 2.41726685 43.47428894 C1.23590149 43.48095078 0.05453613 43.48761261 -1.16262817 43.49447632 C-4.49049015 43.09754039 -5.84830285 42.49602103 -8.18722534 40.13371277 C-9.91834974 34.94033958 -9.41269141 29.37462071 -9.42745972 23.93742371 C-9.43715998 21.77329492 -9.46819302 19.61011858 -9.49972534 17.44621277 C-9.50625662 16.06340588 -9.5115066 14.68059223 -9.51535034 13.29777527 C-9.52469604 12.04432312 -9.53404175 10.79087097 -9.54367065 9.49943542 C-8.8185781 2.6527738 -6.53201202 0.01113205 0 0 Z " fill="#FEFEFE" transform="translate(731.1872253417969,20.866287231445313)"/>
<path d="M0 0 C2.14737756 4.48289395 2.35222864 8.91622833 2.3125 13.8125 C2.30686035 14.55459717 2.3012207 15.29669434 2.29541016 16.0612793 C1.59959685 48.70594596 -13.08074971 83.78372265 -36 107 C-39.66831334 110.31639385 -42.99830967 113.23585287 -48 114 C-49.485 113.505 -49.485 113.505 -51 113 C-52.15912298 108.17992027 -51.78443714 105.41590784 -49.9375 100.84375 C-49.4734375 99.6669165 -49.009375 98.49008301 -48.53125 97.27758789 C-48.15613281 96.35310349 -48.15613281 96.35310349 -47.7734375 95.40994263 C-46.46157445 92.17040075 -45.20136879 88.91084368 -43.9375 85.65234375 C-43.68371582 85.0007579 -43.42993164 84.34917206 -43.16845703 83.67784119 C-31.32821016 55.25004995 -31.32821016 55.25004995 -31.86328125 25.703125 C-34.42918316 21.85868089 -38.97353756 20.88856937 -43.265625 19.93359375 C-50.22333465 18.60121258 -57.19004461 18.6547235 -64.25 18.6875 C-65.3159993 18.6877417 -65.3159993 18.6877417 -66.40353394 18.68798828 C-79.66088274 18.70867951 -92.6530201 19.80216634 -105.81640625 21.34375 C-110.59929862 21.88404368 -115.19161887 22.32017758 -120 22 C-122 20 -122 20 -122.4375 17.6875 C-121.81166581 13.84309 -119.85958126 12.5849987 -117 10 C-90.62273005 -8.68389955 -28.19729777 -21.69396231 0 0 Z " fill="#FF9900" transform="translate(837,249)"/>
</svg>
